<svg width="33" height="32" viewBox="0 0 33 32" fill="none" xmlns="http://www.w3.org/2000/svg">
<path fill-rule="evenodd" clip-rule="evenodd" d="M30.5 16C30.5 23.732 24.232 30 16.5 30C8.76801 30 2.5 23.732 2.5 16C2.5 8.26801 8.76801 2 16.5 2C24.232 2 30.5 8.26801 30.5 16ZM24.5 15.6667C24.5 16.219 24.0523 16.6667 23.5 16.6667H17.832V23C17.832 23.5523 17.3843 24 16.832 24C16.2797 24 15.832 23.5523 15.832 23V16.6667H9.5C8.94771 16.6667 8.5 16.219 8.5 15.6667C8.5 15.1144 8.94771 14.6667 9.5 14.6667H15.832V9C15.832 8.44771 16.2797 8 16.832 8C17.3843 8 17.832 8.44771 17.832 9V14.6667H23.5C24.0523 14.6667 24.5 15.1144 24.5 15.6667Z" fill="#FFC700"/>
</svg>
