<svg width="155" height="59" viewBox="0 0 155 59" fill="none" xmlns="http://www.w3.org/2000/svg">
<path d="M37.5467 25.823C36.5195 28.0534 35.5608 30.1168 34.7489 31.8953C34.2402 32.3178 33.9859 32.249 33.7706 32.1213C26.4925 27.7587 13.384 30.4018 10.2927 43.4603C10.058 44.433 10.0873 45.4942 10.1264 46.4964C10.2536 49.454 12.1416 51.5567 15.0764 52.1168C16.4557 52.3821 19.0676 52.274 21.0632 51.8417C21.7871 49.739 22.5502 47.5282 23.4012 45.0619C21.6404 45.0619 20.1339 45.0619 18.422 45.0619C18.96 42.8019 19.7133 40.8859 20.4469 38.9699C24.8686 38.9699 29.1631 38.9699 33.4772 38.9699C33.1641 40.8564 28.8012 53.8265 27.3631 57.1967C25.3186 58.0909 23.0099 58.2677 20.7698 58.4937C16.4557 58.9261 12.1319 59.0636 7.89605 57.7765C2.18309 56.0373 -0.448392 51.7139 0.715721 45.8578C2.33961 37.6925 6.36998 31.1977 13.8829 27.1986C19.3904 24.2705 25.3186 23.5532 31.4326 24.3196C33.4283 24.5555 35.4826 24.7618 37.5467 25.823Z" fill="#6A6A6A"/>
<path d="M91.9168 57.9321C89.0799 57.9321 86.4093 57.9321 83.4844 57.9321C87.6126 45.9348 91.6625 34.134 95.732 22.2939C98.5591 22.2939 101.23 22.2939 104.174 22.2939C100.036 34.3011 95.9766 46.1018 91.9168 57.9321Z" fill="#6A6A6A"/>
<path d="M81.0094 22.2471C83.9441 22.2471 86.4778 22.2471 89.0114 22.2471C88.943 24.1729 79.5322 52.1568 77.0181 57.9343C74.3964 57.9343 71.716 57.9343 68.752 57.9343C72.8606 45.9469 76.9301 34.1265 81.0094 22.2471Z" fill="#6A6A6A"/>
<path d="M48.4433 37.0636C50.9379 34.4008 54.2932 32.4651 58.0888 32.8778C58.4117 32.9171 58.7149 33.035 59.1942 33.1628C58.5193 35.688 57.4432 37.9381 56.4649 40.1882C51.5541 39.3628 48.3944 40.9448 46.2423 45.3566C44.5695 48.7858 43.6988 52.5196 42.3684 56.0765C42.1336 56.7054 42.026 57.3833 41.4586 57.9336C38.9152 57.9336 36.3131 57.9336 33.7109 57.9336C33.8283 56.0863 39.9521 37.7416 41.8402 33.546C44.1195 33.1922 46.4575 33.5067 48.7368 33.3789C49.2357 34.5875 48.2575 35.914 48.0325 36.7983C47.8955 37.3485 47.9835 37.4173 48.4433 37.0636Z" fill="#6A6A6A"/>
<path d="M62.3953 33.5176C65.2322 33.5176 67.8441 33.5176 70.4462 33.5176C70.3093 35.4041 64.4202 53.0513 62.317 57.915C59.7051 57.915 57.0247 57.915 54.0215 57.915C56.8193 49.7793 59.5779 41.7418 62.3953 33.5176Z" fill="#6A6A6A"/>
<path d="M52.2783 30.5496C49.5881 26.5505 48.6588 22.4335 50.1849 17.9234C50.7816 16.1646 51.3392 14.3763 52.1414 12.7059C53.9707 8.89352 55.8783 5.13024 56.7391 0.924805C58.0108 4.75686 57.9424 8.56927 56.8272 12.3522C56.2109 14.4549 55.487 16.538 54.6652 18.5719C53.2272 22.1387 52.1022 25.7448 52.4348 29.6554C52.4642 29.8814 52.3664 30.1271 52.2783 30.5496Z" fill="#6A6A6A"/>
<path d="M63.5197 3.85449C64.7132 6.64502 65.0458 8.9246 64.449 11.2828C63.911 13.415 63.2458 15.5079 62.3263 17.5123C60.9078 20.6075 59.5969 23.7321 60.2035 27.2595C59.323 27.3873 59.2643 26.7977 59.0296 26.4243C56.672 22.7397 56.7013 18.9371 58.5307 15.0755C59.2546 13.5427 60.0078 12.0197 60.8002 10.5262C61.8176 8.5807 62.7958 6.60571 63.5197 3.85449Z" fill="#6A6A6A"/>
<path d="M107.922 24.7317C109.663 24.378 111.257 24.6236 113.185 24.5254C111.629 29.0453 110.162 33.2998 108.704 37.5249C106.865 37.7116 105.3 37.7509 103.51 37.4954C105.016 33.1328 106.474 28.9175 107.922 24.7317Z" fill="#6A6A6A"/>
<path d="M63.9785 28.9785C64.7905 26.6203 65.5144 24.4881 66.2774 22.2773C69.036 22.2773 71.6969 22.2773 74.4947 22.2773C74.1131 24.6847 73.0371 26.6989 72.411 28.9785C69.6817 28.9785 67.0209 28.9785 63.9785 28.9785Z" fill="#6A6A6A"/>
<path d="M45.0984 27.4147C42.6527 24.9681 42.2908 22.0695 43.044 18.9646C43.5234 16.9798 44.3647 15.1129 45.4212 13.3835C46.5364 11.5657 47.2211 9.57111 48.1211 7.52734C48.7179 8.08741 48.845 8.76539 48.9135 9.4925C49.207 12.5778 48.9331 15.5747 47.6418 18.434C47.3679 19.053 47.1331 19.6917 46.8494 20.3009C45.8418 22.551 45.0494 24.8502 45.0984 27.4147Z" fill="#6A6A6A"/>
<path d="M137.71 25.6279C135.958 25.2742 134.207 24.9991 132.407 25.0089C127.986 25.0089 123.574 24.9991 119.152 24.9893C118.732 24.9893 118.301 24.9794 117.812 25.4806C114.173 36.0728 110.465 46.8615 106.748 57.6895C107.09 57.8467 107.306 58.0334 107.521 58.0432C113.293 58.171 119.074 58.0825 124.826 57.6305C126.929 57.4635 129.013 56.9133 130.93 55.9798C139.441 51.8726 144.146 44.9946 145.095 35.7092C145.584 31.1893 143.021 26.7088 137.71 25.6279ZM135.655 37.9593C135.107 45.3974 129.297 51.0964 121.852 51.4305C120.61 51.4894 119.338 51.6663 117.929 51.175C120.209 44.5426 122.459 37.9986 124.728 31.3957C127.017 31.2286 129.189 31.0813 131.341 31.7101C134.54 32.6436 135.9 34.6087 135.655 37.9593Z" fill="#6A6A6A"/>
<path d="M148.729 22.2414V20.9529H149.549C149.658 20.9529 149.771 20.9607 149.888 20.9764C150.013 20.992 150.123 21.0232 150.216 21.0701C150.318 21.1091 150.4 21.1677 150.462 21.2458C150.525 21.3239 150.556 21.4293 150.556 21.562C150.556 21.8588 150.466 22.0462 150.287 22.1243C150.107 22.2024 149.877 22.2414 149.595 22.2414H148.729ZM147.756 20.1916V25.0994H148.729V23.0028H149.338L150.532 25.0994H151.552L150.24 22.9559C150.419 22.9403 150.587 22.9052 150.743 22.8505C150.9 22.7958 151.036 22.7177 151.153 22.6162C151.27 22.5147 151.36 22.3859 151.423 22.2297C151.493 22.0657 151.528 21.8705 151.528 21.644C151.528 21.113 151.36 20.7382 151.024 20.5195C150.696 20.3009 150.224 20.1916 149.607 20.1916H147.756ZM146.199 22.6514C146.199 22.1516 146.284 21.6948 146.456 21.2809C146.628 20.8592 146.862 20.4961 147.159 20.1916C147.456 19.887 147.803 19.6489 148.202 19.4771C148.608 19.3053 149.041 19.2194 149.502 19.2194C149.955 19.2194 150.38 19.3053 150.778 19.4771C151.185 19.6489 151.536 19.887 151.833 20.1916C152.129 20.4961 152.364 20.8592 152.535 21.2809C152.715 21.6948 152.805 22.1516 152.805 22.6514C152.805 23.1511 152.715 23.6119 152.535 24.0335C152.364 24.4552 152.129 24.8222 151.833 25.1346C151.536 25.4391 151.185 25.6773 150.778 25.8491C150.38 26.0209 149.955 26.1068 149.502 26.1068C149.041 26.1068 148.608 26.0209 148.202 25.8491C147.803 25.6773 147.456 25.4391 147.159 25.1346C146.862 24.8222 146.628 24.4552 146.456 24.0335C146.284 23.6119 146.199 23.1511 146.199 22.6514ZM145.004 22.6514C145.004 23.3229 145.125 23.9281 145.367 24.4669C145.617 25.0057 145.949 25.4665 146.363 25.8491C146.776 26.2317 147.253 26.5246 147.792 26.7276C148.338 26.9306 148.908 27.0321 149.502 27.0321C150.095 27.0321 150.661 26.9306 151.2 26.7276C151.747 26.5246 152.227 26.2317 152.641 25.8491C153.055 25.4665 153.383 25.0057 153.625 24.4669C153.875 23.9281 154 23.3229 154 22.6514C154 21.9876 153.875 21.3863 153.625 20.8475C153.383 20.3087 153.055 19.8519 152.641 19.4771C152.227 19.0944 151.747 18.8016 151.2 18.5986C150.661 18.3877 150.095 18.2823 149.502 18.2823C148.908 18.2823 148.338 18.3877 147.792 18.5986C147.253 18.8016 146.776 19.0944 146.363 19.4771C145.949 19.8519 145.617 20.3087 145.367 20.8475C145.125 21.3863 145.004 21.9876 145.004 22.6514Z" fill="#6A6A6A"/>
<path d="M12.1426 16.019C12.3676 15.6948 12.5926 15.3804 12.8273 15.0561C12.8763 15.0758 12.9252 15.0954 12.9643 15.1249C14.1088 15.7243 15.4099 15.8422 16.8186 15.6162C17.3175 15.5376 17.8066 15.3607 18.2566 15.0365C18.9023 14.5648 19.2153 13.9556 19.2153 13.2482C19.2153 12.9534 19.0881 12.7274 18.8533 12.58C18.4816 12.3442 18.0414 12.2263 17.6012 12.1182C17.024 11.9806 16.4371 11.8627 15.8599 11.7252C15.3904 11.6073 14.9991 11.3911 14.7154 11.0177C14.3534 10.5264 14.3534 9.94671 14.5588 9.29821C14.9306 8.11911 15.7914 7.42148 16.9164 6.99897C17.5914 6.7435 18.2566 6.66489 18.9316 6.63542C20.0468 6.59611 21.0837 6.76315 22.0033 7.23479C22.0522 7.26427 22.1109 7.29374 22.1598 7.32322C22.1696 7.33305 22.1794 7.34287 22.1892 7.3527C21.9739 7.64747 21.7587 7.95207 21.5337 8.25667C21.4066 8.20754 21.2794 8.15841 21.162 8.10928C20.262 7.76538 19.2838 7.63765 18.237 7.72608C17.6794 7.77521 17.1316 7.90294 16.6132 8.2665C16.0751 8.6497 15.8306 9.14099 15.8208 9.72071C15.8208 9.98601 15.9382 10.1727 16.1436 10.2906C16.4469 10.4773 16.799 10.5657 17.161 10.6542C17.8262 10.8114 18.5012 10.9588 19.1566 11.1455C19.5772 11.2634 19.949 11.4697 20.2327 11.7743C20.5848 12.1379 20.7316 12.5997 20.6337 13.1597C20.4674 14.1325 20.0272 14.9873 19.1762 15.6653C18.5599 16.1566 17.8751 16.4612 17.161 16.6086C15.8893 16.8739 14.6665 16.9034 13.5023 16.6184C12.9839 16.5202 12.5632 16.2843 12.1426 16.019Z" fill="#6A6A6A"/>
<path d="M21.3384 13.6008C21.6025 12.5003 22.0623 11.4587 22.9231 10.5646C24.097 9.34619 25.447 8.83525 26.9339 8.8942C27.5796 8.92368 28.1567 9.06124 28.6263 9.43462C29.1448 9.8473 29.3893 10.4467 29.36 11.1541C29.2817 12.913 28.548 14.4654 27.0122 15.733C26.2981 16.3225 25.4861 16.6173 24.635 16.7254C24.009 16.804 23.3927 16.8138 22.8253 16.6566C21.7394 16.3716 21.1818 15.5659 21.2405 14.3868C21.2503 14.2787 21.2503 14.1608 21.2601 14.0527C21.2894 13.9152 21.3188 13.758 21.3384 13.6008ZM28.0491 11.8616C28.0589 11.7437 28.098 11.5079 28.1078 11.272C28.1274 10.5842 27.8339 10.1323 27.1785 9.99469C26.8752 9.92591 26.5524 9.89644 26.2296 9.90626C25.1731 9.91609 24.2633 10.4074 23.5785 11.331C22.8742 12.2645 22.5514 13.2962 22.5122 14.3475C22.4829 15.0058 22.7862 15.4677 23.3731 15.6642C23.9796 15.8705 24.6448 15.8509 25.3296 15.615C26.0535 15.3596 26.6307 14.8486 27.0904 14.21C27.5796 13.5025 27.8535 12.7459 28.0491 11.8616Z" fill="#6A6A6A"/>
<path d="M34.7014 16.6332C34.6622 16.3875 34.6329 16.1517 34.5938 15.8962C34.5449 15.9159 34.4959 15.9257 34.4568 15.9454C33.7427 16.2008 33.0286 16.4661 32.3047 16.7216C32.2264 16.7511 32.1286 16.7707 32.0503 16.7707C31.5221 16.7806 31.0036 16.7413 30.5243 16.5742C29.7808 16.2991 29.4678 15.7292 29.5265 14.9038C29.5656 14.3143 29.7515 13.7346 29.9667 13.1549C30.3873 12.0052 30.7982 10.8556 31.209 9.706C31.2873 9.49966 31.3558 9.29332 31.434 9.07715C31.8547 9.07715 32.2753 9.07715 32.7058 9.07715C32.5688 9.45053 32.4318 9.83373 32.2949 10.2071C31.8645 11.396 31.434 12.5751 31.0232 13.7641C30.9253 14.0392 30.8667 14.3339 30.8569 14.6091C30.8177 15.2576 31.0916 15.5916 31.7177 15.6997C32.6764 15.8668 33.6253 15.6408 34.584 15.12C34.7894 15.0119 34.9166 14.8744 34.9948 14.6582C35.484 13.2629 35.9927 11.8677 36.5013 10.4724C36.6676 10.0106 36.8339 9.55861 37.0003 9.08697C37.4209 9.08697 37.8415 9.08697 38.272 9.08697C38.1448 9.43088 38.0274 9.76495 37.91 10.1089C37.5089 11.2192 37.1176 12.3295 36.7166 13.4398C36.3644 14.4322 36.0024 15.4246 35.6503 16.417C35.6405 16.4465 35.5916 16.5054 35.5622 16.5054C35.2688 16.5448 34.9948 16.5841 34.7014 16.6332Z" fill="#6A6A6A"/>
<path d="M38.3205 16.5871C37.8901 16.5871 37.4793 16.5871 37.0488 16.5871C37.2934 15.8895 37.5477 15.2115 37.7923 14.5237C38.1934 13.4232 38.5847 12.3129 38.9858 11.2124C39.3771 10.1119 39.7781 9.01142 40.1694 7.91093C40.3455 7.41964 40.5216 6.93818 40.6977 6.44689C40.7172 6.38794 40.727 6.34863 40.8053 6.34863C41.1966 6.34863 41.5879 6.34863 41.9792 6.34863C41.989 6.34863 41.989 6.35846 42.0085 6.35846C40.7857 9.76801 39.5531 13.1776 38.3205 16.5871Z" fill="#6A6A6A"/>
<path d="M77.5572 7.31279C77.3615 7.60756 77.1659 7.90234 76.9702 8.20693C76.8431 8.15781 76.7159 8.10868 76.5887 8.05955C75.6692 7.71565 74.6811 7.59774 73.6442 7.68617C73.0866 7.7353 72.5486 7.86303 72.0594 8.21676C71.5507 8.59014 71.3453 9.08143 71.3747 9.65133C71.3942 9.9068 71.5214 10.0935 71.7366 10.2114C72.0497 10.3883 72.4116 10.4865 72.7736 10.5651C73.4485 10.7223 74.1235 10.8697 74.7887 11.0466C75.2192 11.1645 75.6007 11.361 75.9137 11.6558C76.2855 12.0193 76.4615 12.4615 76.4126 13.0216C76.3148 13.9747 75.9431 14.8197 75.1311 15.4878C74.554 15.9693 73.8985 16.2739 73.1844 16.4213C71.9323 16.6866 70.7192 16.7161 69.5356 16.4409C69.0954 16.3329 68.4693 16.0479 68.166 15.8219C68.3714 15.5173 68.5671 15.2029 68.7823 14.8786C68.8312 14.8983 68.8801 14.918 68.929 14.9474C70.1127 15.537 71.4138 15.6451 72.8029 15.4289C73.292 15.3503 73.7714 15.1832 74.192 14.859C74.7985 14.3874 75.0724 13.7978 75.0235 13.1002C75.004 12.8054 74.8572 12.5892 74.6127 12.4517C74.2214 12.2257 73.7811 12.0979 73.3312 11.9997C72.7442 11.872 72.1573 11.754 71.5703 11.6165C71.091 11.5084 70.6899 11.2922 70.3866 10.9189C69.9953 10.4374 69.9464 9.86749 70.1029 9.22882C70.3964 8.06937 71.1986 7.38157 72.2844 6.96888C72.9399 6.71341 73.5953 6.63481 74.2605 6.61516C75.3659 6.57585 76.4126 6.73307 77.3615 7.20471C77.4202 7.23418 77.4691 7.26366 77.518 7.28331C77.5376 7.29314 77.5474 7.30296 77.5572 7.31279Z" fill="#6A6A6A"/>
<path d="M83.8849 13.1396C83.7577 13.6014 83.6892 14.0534 83.7773 14.4955C83.8555 14.8787 84.0805 15.1342 84.4229 15.2914C84.8729 15.4977 85.362 15.5469 85.8805 15.537C86.6435 15.5272 87.3772 15.4486 88.4239 15.1145C88.4435 15.3995 88.4533 15.6844 88.4729 15.9989C88.1794 16.0971 87.8957 16.1954 87.612 16.274C86.5457 16.5688 85.499 16.6474 84.4718 16.4803C83.7577 16.3624 83.161 16.0775 82.7893 15.4584C82.5056 14.9868 82.4175 14.4562 82.4762 13.8765C82.574 12.8644 82.8675 11.8917 83.474 10.9975C84.286 9.78896 85.4012 9.07168 86.7903 8.86534C87.6022 8.74743 88.3946 8.76708 89.1283 9.02255C89.2652 9.07168 89.3924 9.13063 89.5098 9.19941C90.1261 9.53349 90.3707 10.0837 90.3217 10.8108C90.2435 12.0685 89.3826 12.7367 88.4337 13.0315C87.8957 13.1985 87.3577 13.2476 86.8196 13.2771C85.9979 13.3164 85.1957 13.2378 84.3838 13.169C84.2273 13.169 84.061 13.1494 83.8849 13.1396ZM84.1197 12.3044C84.286 12.3044 84.4523 12.3044 84.6088 12.3044C85.5186 12.2847 86.4185 12.2749 87.3283 12.2552C87.6707 12.2454 88.0229 12.1668 88.3555 12.0194C88.6392 11.8917 88.8739 11.705 88.9815 11.4004C89.187 10.8305 89.1381 10.1427 88.3261 9.92652C87.8272 9.78896 87.3087 9.79879 86.7805 9.87739C86.1544 9.97565 85.5773 10.2115 85.0979 10.6929C84.6186 11.1449 84.3447 11.705 84.1197 12.3044Z" fill="#6A6A6A"/>
<path d="M91.9669 13.1278C91.83 13.6093 91.7713 14.0613 91.8691 14.5133C91.9474 14.8768 92.1724 15.1225 92.505 15.2797C92.9452 15.486 93.4343 15.5253 93.9332 15.5253C94.7745 15.5155 95.606 15.3878 96.4277 15.1126C96.4473 15.1028 96.4669 15.1028 96.4962 15.093C96.5158 15.3779 96.5256 15.6629 96.5451 15.9773C96.2517 16.0756 95.968 16.1738 95.6843 16.2524C94.618 16.5472 93.5615 16.6258 92.5343 16.4588C91.83 16.3409 91.2332 16.0559 90.8713 15.4467C90.5876 14.9751 90.4996 14.4445 90.5583 13.8648C90.6561 12.8527 90.9496 11.88 91.5561 10.9858C92.368 9.77724 93.4832 9.05996 94.8723 8.85362C95.6843 8.73571 96.4766 8.75536 97.2103 9.01083C97.3473 9.05996 97.4745 9.11891 97.5918 9.18769C98.2081 9.52177 98.4527 10.072 98.4038 10.7991C98.3255 12.0568 97.4647 12.725 96.5158 13.0198C95.9777 13.1868 95.4397 13.2359 94.9017 13.2654C94.0799 13.3047 93.2778 13.2261 92.4658 13.1573C92.2995 13.1573 92.1332 13.1475 91.9669 13.1278ZM92.2017 12.2926C92.3876 12.2926 92.5637 12.2926 92.7397 12.2926C93.6299 12.273 94.5201 12.2632 95.4104 12.2435C95.7527 12.2337 96.0951 12.1551 96.4277 12.0077C96.6919 11.8898 96.9071 11.7129 97.0342 11.4378C97.3375 10.7696 97.1027 10.131 96.4571 9.92463C96.0071 9.77724 95.5375 9.77724 95.0484 9.82637C93.7278 9.97376 92.7495 10.691 92.2017 12.2926Z" fill="#6A6A6A"/>
<path d="M80.8843 7.00729C80.6984 7.67544 80.5126 8.32395 80.3169 8.9921C81.2365 8.9921 82.1462 8.9921 83.0854 8.9921C83.0267 9.27705 82.9582 9.55217 82.8995 9.83712C81.931 9.89607 80.9723 9.9452 80.0039 10.0042C79.9256 10.2695 79.8474 10.5347 79.7691 10.7902C79.4659 11.8416 79.1528 12.8929 78.8496 13.9443C78.7811 14.1899 78.742 14.4552 78.7322 14.7009C78.7028 15.1037 78.9083 15.3592 79.28 15.4575C79.7985 15.595 80.3463 15.5557 80.8941 15.4182C81.0702 15.369 81.2463 15.3199 81.4419 15.261C81.4713 15.5066 81.5006 15.7522 81.5202 15.9979C81.5202 16.0274 81.4713 16.0765 81.4321 16.0961C81.0115 16.3221 80.5615 16.4302 80.1115 16.4892C79.5539 16.5678 79.0061 16.5678 78.4876 16.4302C77.6854 16.2141 77.3039 15.6343 77.4018 14.7697C77.4507 14.3275 77.5876 13.8952 77.7148 13.4628C78.0278 12.382 78.3507 11.3012 78.6637 10.2203C78.6833 10.1515 78.7028 10.0828 78.7322 9.98451C78.3115 9.9452 77.8909 9.9059 77.4604 9.8666C77.5485 9.62095 77.6268 9.37531 77.7148 9.13949C77.7246 9.11984 77.7833 9.09036 77.8126 9.09036C78.1746 9.05105 78.5463 9.01175 78.9083 8.9921C79.0256 8.98227 79.0746 8.94297 79.1137 8.84471C79.3974 8.23551 79.7006 7.62632 79.9843 7.01712C80.0235 6.92868 80.0724 6.89921 80.1604 6.90903C80.405 6.96799 80.6397 6.98764 80.8843 7.00729Z" fill="#6A6A6A"/>
<path d="M99.303 16.3626C98.8725 16.3626 98.4617 16.3626 98.041 16.3626C98.2073 15.7829 98.3736 15.213 98.5497 14.6332C98.8725 13.5426 99.1856 12.4617 99.5084 11.3711C99.8312 10.2804 100.144 9.18975 100.467 8.09908C100.633 7.52919 100.8 6.94946 100.976 6.37957C100.986 6.34027 101.034 6.28131 101.054 6.28131C101.455 6.27148 101.856 6.27148 102.277 6.27148C101.279 9.65156 100.291 13.0022 99.303 16.3626Z" fill="#6A6A6A"/>
</svg>
