<svg width="172" height="48" viewBox="0 0 172 48" fill="none" xmlns="http://www.w3.org/2000/svg">
<path d="M122.392 47.4963C120.643 47.4963 119.147 47.4963 117.41 47.4963C114.897 43.0341 112.355 38.5221 109.813 34.0102C109.65 34.0546 109.488 34.0984 109.325 34.1428C109.325 38.443 109.325 42.7432 109.325 47.2941C107.105 47.2941 105.127 47.2941 102.887 47.2941C102.887 40.4348 102.887 33.4765 102.887 26.298C106.115 26.298 109.258 26.298 112.742 26.298C114.979 30.3955 117.303 34.6551 119.886 39.3862C122.445 34.7149 124.837 30.3506 127.086 26.2461C130.698 26.2461 133.858 26.2461 137.176 26.2461C137.176 33.4027 137.176 40.3637 137.176 47.4562C135.013 47.4562 133.09 47.4562 130.827 47.4562C130.827 42.9982 130.827 38.6018 130.827 34.2059C130.587 34.1278 130.346 34.0503 130.105 33.9722C127.561 38.4344 125.015 42.8966 122.392 47.4963Z" fill="#6A6A6A"/>
<path d="M0.199219 26.207L17.3602 33.0637L34.5211 26.4653V47.3433H28.3238V36.1586L17.3602 40.6289L6.64064 36.1939V47.3278H0.199219V26.207Z" fill="#6A6A6A"/>
<path d="M25.0673 40.8848V47.1463H9.77441V40.8992L17.4216 44.1968L25.0673 40.8848Z" fill="#6A6A6A"/>
<path d="M151.318 26.127C154.3 26.127 157.031 26.127 160.074 26.127C163.875 33.0483 167.723 40.0574 171.799 47.4803C168.862 47.4803 166.594 47.4803 164.148 47.4803C163.464 46.3831 162.725 45.1992 161.967 43.9838C157.747 43.9838 153.602 43.9838 149.45 43.9838C148.74 45.1891 148.071 46.3248 147.441 47.3958C145.046 47.3958 142.788 47.3958 139.888 47.3958C143.854 40.0162 147.59 33.0628 151.318 26.127ZM155.665 31.7035C154.366 34.3461 153.331 36.4534 152.24 38.6719C154.809 38.6719 156.943 38.6719 159.287 38.6719C158.084 36.3577 157.002 34.2755 155.665 31.7035Z" fill="#6A6A6A"/>
<path d="M49.2741 26.127C52.2564 26.127 54.9866 26.127 58.0301 26.127C61.8308 33.0483 65.679 40.0574 69.7551 47.4803C66.8176 47.4803 64.5499 47.4803 62.1042 47.4803C61.42 46.3831 60.681 45.1992 59.9228 43.9838C55.7027 43.9838 51.5583 43.9838 47.406 43.9838C46.6962 45.1891 46.0275 46.3248 45.3967 47.3958C43.0016 47.3958 40.7445 47.3958 37.8438 47.3958C41.8096 40.0162 45.5464 33.0628 49.2741 26.127ZM53.6215 31.7035C52.323 34.3461 51.2871 36.4534 50.197 38.6719C52.7657 38.6719 54.8992 38.6719 57.2431 38.6719C56.04 36.3577 54.9584 34.2755 53.6215 31.7035Z" fill="#6A6A6A"/>
<path d="M92.0426 39.7375C89.5607 39.7375 87.1197 39.7375 84.4689 39.7375C84.4689 38.167 84.4689 36.8981 84.4689 35.3854C89.2639 35.3854 93.9821 35.3854 99.2913 35.3854C99.0696 38.3477 99.1319 41.2785 98.5085 44.0542C98.2469 45.2188 96.6814 46.3947 95.4362 46.9465C94.1276 47.5272 92.4955 47.4839 91.0009 47.509C87.099 47.5753 83.1944 47.5823 79.2924 47.516C74.7964 47.4395 71.0676 45.5044 71.3708 39.4375C71.455 37.7504 71.3841 36.0554 71.3836 34.3641C71.382 29.1549 72.7807 27.0016 77.8847 26.4636C82.8752 25.9375 87.9835 25.9632 92.9926 26.3556C97.7753 26.7305 99.027 28.6105 98.8208 33.393C96.8749 33.393 94.9039 33.393 92.6841 33.393C92.0634 31.606 90.4302 31.3916 88.5392 31.4804C86.2379 31.5884 83.927 31.4691 81.6214 31.5183C79.1027 31.5723 78.4452 32.2225 78.3749 34.6662C78.3312 36.1784 78.3211 37.6948 78.385 39.2054C78.4767 41.3662 79.1576 42.0816 81.2879 42.1276C84.1247 42.1891 86.9652 42.1832 89.8026 42.1191C91.6584 42.0774 91.6568 42.0084 92.0426 39.7375Z" fill="#6A6A6A"/>
<path d="M29.6599 3.04492C29.0115 7.39591 29.0147 7.39912 26.0692 10.3561C24.7941 11.6362 23.5148 12.9126 22.2365 14.1895C22.2365 14.1895 17.4122 19.041 14.9654 21.4312C13.7069 22.6605 13.2353 24.2192 14.0809 25.5057C15.2361 27.2628 16.9476 28.6525 18.6543 30.4454C19.3027 26.0944 19.2995 26.0912 22.245 23.1342C23.5201 21.8541 30.902 14.4494 33.3487 12.0592C34.6073 10.8299 35.0788 9.27116 34.2332 7.98463C33.0775 6.22702 31.3666 4.83783 29.6599 3.04492Z" fill="#6A6A6A"/>
<path d="M19.4373 0C18.7888 4.35099 18.792 4.3542 15.8465 7.31118C14.5714 8.59129 13.2921 9.86766 12.0138 11.1446C12.0138 11.1446 7.18956 15.996 4.74279 18.3862C3.48424 19.6155 3.01268 21.1742 3.85829 22.4608C5.01347 24.2179 6.72493 25.6076 8.43159 27.4005C9.08005 23.0495 9.07686 23.0463 12.0224 20.0893C13.2974 18.8092 20.6793 11.4044 23.1261 9.01425C24.3846 7.78494 24.8562 6.22624 24.0106 4.93971C22.8554 3.1821 21.1445 1.7929 19.4373 0Z" fill="#6A6A6A"/>
</svg>
