<svg width="54" height="81" viewBox="0 0 54 81" fill="none" xmlns="http://www.w3.org/2000/svg">
<path d="M8.8459 78.0994C7.91171 79.0045 7.32211 79.7423 6.41856 80.3146C4.67415 78.4371 2.692 76.8183 1.13422 74.7951C0.466241 73.9277 0.195708 72.8701 0.201209 71.7536C0.211425 69.6276 0.19669 67.5015 0.201012 65.3755C0.206906 62.4823 1.87451 60.7784 4.76923 60.7898C6.43153 60.7963 8.10346 60.625 9.75672 60.9784C10.3043 61.0955 10.8298 61.2568 11.3359 61.4902C13.3577 62.4232 14.0334 64.1276 13.1668 66.1824C12.742 67.1897 12.0677 68.0309 11.2946 68.7973C9.29895 70.7756 7.30738 72.7579 5.18555 74.8664C6.42014 75.9568 7.5893 76.9894 8.8459 78.0994ZM3.15468 72.4375C3.64368 72.2952 3.84565 71.9817 4.09339 71.7357C5.88123 69.9606 7.65748 68.174 9.4465 66.4001C9.93059 65.9201 10.3785 65.4085 10.1182 64.6865C9.84277 63.9228 9.12193 63.7847 8.4235 63.7584C7.31248 63.7164 6.19852 63.7105 5.08692 63.7382C3.7541 63.7714 3.18493 64.3244 3.16391 65.6755C3.12933 67.8993 3.15468 70.1239 3.15468 72.4375Z" fill="#6A6A6A"/>
<path d="M29.6627 63.0099C30.2881 62.8036 30.4808 62.2002 31.0914 62.034C31.6376 64.003 32.2345 65.9453 32.6891 68.1693C30.5187 67.6508 28.5272 67.1698 26.5631 66.5266C26.7621 65.9472 27.3022 65.7541 27.5136 65.2307C27.1551 64.6345 26.6091 64.1686 26.0611 63.7274C25.3735 63.1735 24.6102 63.2484 24.0083 63.8368C22.4189 65.3901 20.855 66.9714 19.3322 68.5897C18.7668 69.1905 18.8373 69.9732 19.4664 70.6271C20.9387 72.1573 22.4328 73.668 23.9597 75.1434C24.7218 75.8798 25.5252 75.8552 26.2983 75.0778C27.1478 74.2236 27.9169 73.2894 28.7333 72.3766C29.6335 73.2858 30.3097 73.9689 31.036 74.7025C29.8559 75.9399 28.7386 77.2784 27.2906 78.244C25.6851 79.3146 23.8641 79.2144 22.4014 77.8939C20.4359 76.1199 18.5373 74.2607 16.8213 72.2422C15.2777 70.4267 15.2699 68.6536 16.8172 66.8349C18.5337 64.8178 20.4161 62.939 22.3959 61.1824C24.1517 59.6244 26.2244 59.7572 27.9672 61.3507C28.5635 61.8957 29.1238 62.4804 29.6627 63.0099Z" fill="#6A6A6A"/>
<path d="M44.1751 78.9038C42.6853 78.9798 41.6541 78.1081 40.6912 77.1594C39.2238 75.714 37.7882 74.236 36.3579 72.7534C34.3465 70.6685 34.2147 68.774 36.0974 66.6062C37.811 64.6333 39.6519 62.7628 41.6549 61.0781C43.1839 59.792 44.9582 59.6839 46.5117 60.9346C48.8553 62.8217 50.9844 64.9671 52.8681 67.3149C54.0334 68.7669 53.8843 70.7214 52.529 72.178C50.6815 74.1637 48.7266 76.0521 46.7706 77.9333C46.0759 78.6012 45.1826 78.9614 44.1751 78.9038ZM44.1877 63.3677C43.7001 63.3628 43.3054 63.5753 42.971 63.9091C41.5382 65.34 40.0912 66.7571 38.6853 68.2141C37.8208 69.1098 37.8027 69.9074 38.6497 70.7955C40.0472 72.2605 41.4778 73.6953 42.9329 75.1032C43.7631 75.9065 44.5356 75.9458 45.3604 75.1641C46.8769 73.7269 48.3547 72.2456 49.7872 70.7247C50.5807 69.8823 50.5217 69.0538 49.7019 68.2119C48.3119 66.7846 46.8893 65.3891 45.4761 63.9846C45.1215 63.6321 44.7213 63.3584 44.1877 63.3677Z" fill="#6A6A6A"/>
<path d="M41.2081 0C44.3879 3.10632 47.5015 6.05665 50.5004 9.11935C51.8422 10.4899 52.7532 12.1795 52.801 14.1919C52.8534 16.4004 51.8179 18.1713 50.4057 19.7265C48.8228 21.47 47.1445 23.127 45.5099 24.8237C45.3534 24.9861 45.2107 25.1618 44.9659 25.44C46.7992 27.2435 48.6302 29.0178 50.4293 30.8241C51.7835 32.1838 52.9271 33.7025 53.4012 35.6027C54.0684 38.2765 53.125 40.5977 51.3405 42.4482C48.207 45.6972 44.8826 48.762 41.4563 52.0805C35.8181 52.0805 29.8383 52.0805 23.7545 52.0805C23.6073 47.4308 23.8451 42.8244 23.6148 38.3816C17.8578 32.6218 12.196 26.9573 6.405 21.1635C6.405 31.495 6.405 41.7407 6.405 52.0615C4.28847 52.0615 2.34091 52.0615 0.296875 52.0615C0.296875 34.7479 0.296875 17.4183 0.296875 0.00726923C2.25309 0.00726923 4.22698 0.00726923 6.33368 0.00726923C6.33368 4.04523 6.33368 8.05726 6.33368 11.9695C12.1465 17.7155 17.8434 23.347 23.5745 29.0125C23.7671 28.7907 23.7079 28.3952 23.7081 28.0245C23.7117 22.0979 23.7176 16.1713 23.7072 10.2447C23.7032 8.03349 23.0068 6.85076 21.4386 6.31421C20.711 6.06529 19.9495 6.15017 19.1998 6.13072C18.5521 6.11382 17.8916 6.20577 17.198 5.87492C17.0823 3.95427 17.124 2.01358 17.2291 0C25.3213 0 33.3293 0 41.2081 0ZM29.9367 28.4196C29.9367 34.3489 29.9367 40.179 29.9367 46.0351C33.0316 46.0351 36.0366 46.0351 39.024 46.0351C41.3453 43.7237 43.672 41.4702 45.9219 39.1423C47.2856 37.7313 47.35 36.0387 46.0966 34.5312C44.2765 32.342 42.1443 30.4459 40.181 28.4196C36.7625 28.4196 33.3953 28.4196 29.9367 28.4196ZM29.9365 6.2258C29.9365 11.5536 29.9365 16.8945 29.9365 22.2537C33.42 22.2537 36.815 22.2537 40.112 22.2537C41.7651 20.6205 43.3594 19.0688 44.9255 17.4892C45.7844 16.6228 46.3559 15.6159 46.1567 14.3243C46.0088 13.366 45.4284 12.6573 44.7775 12.0039C42.9765 10.1958 41.1525 8.41011 39.359 6.59477C38.9562 6.1871 38.5226 6.03582 37.9619 6.04014C35.5735 6.05901 33.1847 6.04624 30.796 6.04957C30.5074 6.05016 30.2017 5.9924 29.9365 6.2258Z" fill="#6A6A6A"/>
</svg>
