<svg width="44" height="65" viewBox="0 0 44 65" fill="none" xmlns="http://www.w3.org/2000/svg">
<mask id="path-1-inside-1" fill="white">
<path fill-rule="evenodd" clip-rule="evenodd" d="M22 64.3145C22 64.3145 43.5 33.964 43.5 21.9919C43.5 10.0198 33.8741 0.314453 22 0.314453C10.1259 0.314453 0.5 10.0198 0.5 21.9919C0.5 33.964 22 64.3145 22 64.3145ZM21.6735 29.7025C27.2507 29.7025 31.7719 25.1705 31.7719 19.5801C31.7719 13.9896 27.2507 9.45761 21.6735 9.45761C16.0962 9.45761 11.575 13.9896 11.575 19.5801C11.575 25.1705 16.0962 29.7025 21.6735 29.7025Z"/>
</mask>
<path fill-rule="evenodd" clip-rule="evenodd" d="M22 64.3145C22 64.3145 43.5 33.964 43.5 21.9919C43.5 10.0198 33.8741 0.314453 22 0.314453C10.1259 0.314453 0.5 10.0198 0.5 21.9919C0.5 33.964 22 64.3145 22 64.3145ZM21.6735 29.7025C27.2507 29.7025 31.7719 25.1705 31.7719 19.5801C31.7719 13.9896 27.2507 9.45761 21.6735 9.45761C16.0962 9.45761 11.575 13.9896 11.575 19.5801C11.575 25.1705 16.0962 29.7025 21.6735 29.7025Z" fill="#FFC700"/>
<path d="M22 64.3145L21.184 64.8925L22 66.0444L22.816 64.8925L22 64.3145ZM42.5 21.9919C42.5 24.7565 41.2382 28.7299 39.227 33.2489C37.2335 37.7283 34.5673 42.6075 31.8894 47.1335C29.2134 51.6561 26.5359 55.8087 24.5266 58.8316C23.5222 60.3426 22.6855 61.5703 22.1004 62.4196C21.8078 62.8442 21.5781 63.1742 21.4219 63.3977C21.3438 63.5094 21.284 63.5945 21.2439 63.6514C21.2239 63.6799 21.2088 63.7013 21.1987 63.7156C21.1937 63.7227 21.19 63.728 21.1875 63.7315C21.1863 63.7332 21.1854 63.7345 21.1848 63.7353C21.1845 63.7357 21.1843 63.736 21.1841 63.7362C21.184 63.7364 21.184 63.7364 22 64.3145C22.816 64.8925 22.8161 64.8923 22.8164 64.892C22.8165 64.8917 22.8168 64.8913 22.8172 64.8908C22.8179 64.8898 22.819 64.8883 22.8203 64.8864C22.8231 64.8825 22.8271 64.8768 22.8324 64.8693C22.8431 64.8542 22.8588 64.8319 22.8794 64.8026C22.9207 64.744 22.9816 64.6572 23.061 64.5437C23.2197 64.3167 23.452 63.9829 23.7473 63.5543C24.3379 62.6971 25.1809 61.4601 26.1922 59.9387C28.2141 56.8967 30.9116 52.7134 33.6106 48.1519C36.3077 43.5937 39.0165 38.6406 41.0542 34.0621C43.0743 29.5232 44.5 25.2133 44.5 21.9919H42.5ZM22 1.31445C33.3141 1.31445 42.5 10.5643 42.5 21.9919H44.5C44.5 9.47524 34.4341 -0.685547 22 -0.685547V1.31445ZM1.5 21.9919C1.5 10.5643 10.6859 1.31445 22 1.31445V-0.685547C9.56586 -0.685547 -0.5 9.47524 -0.5 21.9919H1.5ZM22 64.3145C22.816 63.7364 22.816 63.7364 22.8159 63.7362C22.8157 63.736 22.8155 63.7357 22.8152 63.7353C22.8146 63.7345 22.8137 63.7332 22.8125 63.7315C22.81 63.728 22.8063 63.7227 22.8013 63.7156C22.7912 63.7013 22.7761 63.6799 22.7561 63.6514C22.716 63.5945 22.6562 63.5094 22.5781 63.3977C22.4219 63.1742 22.1922 62.8442 21.8996 62.4196C21.3145 61.5703 20.4778 60.3426 19.4734 58.8316C17.4641 55.8087 14.7866 51.6561 12.1106 47.1335C9.43267 42.6075 6.76655 37.7283 4.77298 33.2489C2.76179 28.7299 1.5 24.7565 1.5 21.9919H-0.5C-0.5 25.2133 0.925709 29.5232 2.94577 34.0621C4.98345 38.6406 7.69233 43.5937 10.3894 48.1519C13.0884 52.7134 15.7859 56.8967 17.8078 59.9387C18.8191 61.4601 19.6621 62.6971 20.2527 63.5543C20.548 63.9829 20.7803 64.3167 20.939 64.5437C21.0184 64.6572 21.0793 64.744 21.1206 64.8026C21.1412 64.8319 21.1569 64.8542 21.1676 64.8693C21.1729 64.8768 21.1769 64.8825 21.1797 64.8864C21.181 64.8883 21.1821 64.8898 21.1828 64.8908C21.1832 64.8913 21.1835 64.8917 21.1836 64.892C21.1839 64.8923 21.184 64.8925 22 64.3145ZM30.7719 19.5801C30.7719 24.6205 26.6962 28.7025 21.6735 28.7025V30.7025C27.8052 30.7025 32.7719 25.7206 32.7719 19.5801H30.7719ZM21.6735 10.4576C26.6962 10.4576 30.7719 14.5396 30.7719 19.5801H32.7719C32.7719 13.4395 27.8052 8.45761 21.6735 8.45761V10.4576ZM12.575 19.5801C12.575 14.5396 16.6507 10.4576 21.6735 10.4576V8.45761C15.5417 8.45761 10.575 13.4395 10.575 19.5801H12.575ZM21.6735 28.7025C16.6507 28.7025 12.575 24.6205 12.575 19.5801H10.575C10.575 25.7206 15.5417 30.7025 21.6735 30.7025V28.7025Z" fill="#6A6A6A" mask="url(#path-1-inside-1)"/>
</svg>
