<svg width="119" height="47" viewBox="0 0 119 47" fill="none" xmlns="http://www.w3.org/2000/svg">
<path d="M61.1025 25.5781C66.6441 25.5781 72.0916 25.5781 77.6393 25.5781C77.6393 29.6831 77.6393 33.7113 77.6393 37.9453C73.7013 37.9453 69.8609 37.9453 65.9105 37.9453C65.9105 39.1479 65.9105 40.1457 65.9105 41.3615C69.8202 41.3615 73.6556 41.3615 77.6141 41.3615C77.6141 43.0189 77.6141 44.4606 77.6141 46.0134C72.0954 46.0134 66.6495 46.0134 61.1029 46.0134C61.1025 39.1727 61.1025 32.4328 61.1025 25.5781ZM73.4736 30.4399C70.9563 30.4399 68.4475 30.4399 65.9554 30.4399C65.9554 31.3842 65.9554 32.169 65.9554 32.9882C68.5335 32.9882 70.9501 32.9882 73.4736 32.9882C73.4736 32.174 73.4736 31.4288 73.4736 30.4399Z" fill="#6A6A6A"/>
<path d="M2.42156 33.0331C6.28055 33.0331 10.0667 33.0331 14.0102 33.0331C14.0102 37.3813 14.0102 41.5986 14.0102 45.97C8.57318 45.97 3.0777 45.97 -2.5332 45.97C-2.5332 44.528 -2.5332 43.1336 -2.5332 41.4874C1.33548 41.4874 5.2274 41.4874 9.25527 41.4874C9.25527 40.2507 9.25527 39.2591 9.25527 38.0165C5.37342 38.0165 1.48344 38.0165 -2.52158 38.0165C-2.52158 33.7454 -2.52158 29.7199 -2.52158 25.5762C2.97738 25.5762 8.43219 25.5762 14.0284 25.5762C14.0284 27.0597 14.0284 28.5137 14.0284 30.1792C10.2643 30.1792 6.43084 30.1792 2.42117 30.1792C2.42156 31.1665 2.42156 31.9517 2.42156 33.0331Z" fill="#6A6A6A"/>
<path d="M111.984 37.9224C107.977 37.9224 104.127 37.9224 100.172 37.9224C100.172 33.731 100.172 29.7012 100.172 25.5703C105.693 25.5703 111.15 25.5703 116.731 25.5703C116.731 27.0914 116.731 28.5962 116.731 30.2934C112.821 30.2934 108.978 30.2934 105.06 30.2934C105.06 31.2912 105.06 32.0969 105.06 33.0385C108.948 33.0385 112.738 33.0385 116.69 33.0385C116.69 37.3874 116.69 41.6055 116.69 45.9727C111.288 45.9727 105.838 45.9727 100.228 45.9727C100.228 44.5856 100.228 43.1467 100.228 41.4579C104.077 41.4579 107.973 41.4579 111.984 41.4579C111.984 40.2192 111.984 39.2238 111.984 37.9224Z" fill="#6A6A6A"/>
<path d="M21.8234 46.013C20.3388 46.013 18.9463 46.013 17.3857 46.013C17.3857 39.2087 17.3857 32.3781 17.3857 25.4355C18.8452 25.4355 20.2838 25.4355 21.8234 25.4355C21.8234 32.3343 21.8234 39.1192 21.8234 46.013Z" fill="#6A6A6A"/>
<path d="M86.0787 46.018C84.2966 46.018 82.8356 46.018 81.2773 46.018C81.2773 39.1223 81.2773 32.3289 81.2773 25.4297C86.5017 25.4297 91.6261 25.4297 96.8814 25.4297C96.8814 32.2866 96.8814 39.0801 96.8814 45.9986C95.3956 45.9986 93.9416 45.9986 92.2187 45.9986C92.2187 40.8568 92.2187 35.6835 92.2187 30.4034C90.057 30.4034 88.1622 30.4034 86.0787 30.4034C86.0787 35.6332 86.0787 40.7599 86.0787 46.018Z" fill="#6A6A6A"/>
<path d="M48.1178 32.8261C48.9118 32.8261 49.4061 32.8261 50.018 32.8261C51.476 30.3692 52.9478 27.8887 54.4298 25.3916C56.1565 25.3916 57.8058 25.3916 59.7478 25.3916C57.7124 28.9454 55.7773 32.3237 53.8031 35.7706C55.7498 39.1377 57.6733 42.4641 59.7095 45.9861C57.8747 45.9861 56.2456 45.9861 54.3705 45.9861C53.0234 43.7287 51.5798 41.306 50.1315 38.8859C49.554 37.9207 49.5498 37.923 48.2286 37.6856C48.2286 40.4465 48.2286 43.1772 48.2286 46.0117C46.4441 46.0117 44.8712 46.0117 43.1797 46.0117C43.1797 37.0445 43.1797 28.1734 43.1797 19.166C44.7747 19.166 46.3531 19.166 48.1178 19.166C48.1178 23.6242 48.1178 28.108 48.1178 32.8261Z" fill="#6A6A6A"/>
<path d="M21.8232 19.1289C21.8232 20.6581 21.8232 22.0908 21.8232 23.6196C20.2875 23.6196 18.8532 23.6196 17.3193 23.6196C17.3193 22.0893 17.3193 20.6562 17.3193 19.1289C18.8551 19.1289 20.2902 19.1289 21.8232 19.1289Z" fill="#6A6A6A"/>
<path d="M30.0096 19.127C30.0096 23.7269 30.0096 28.2099 30.0096 32.7893C30.6739 32.83 31.1654 32.8602 31.7855 32.8982C33.2671 30.4119 34.7428 27.9349 36.2457 25.4126C37.8825 25.4126 39.478 25.4126 41.4507 25.4126C39.4826 28.9129 37.5874 32.2843 35.6329 35.7606C37.5208 39.0928 39.4133 42.4332 41.422 45.9784C39.6441 45.9784 38.0828 45.9784 36.3592 45.9784C34.5968 43.3016 32.7504 40.4837 30.8695 37.6891C30.7994 37.5849 30.3946 37.7058 30.0139 37.7302C30.0139 40.4678 30.0139 43.1602 30.0139 45.9865C28.31 45.9865 26.739 45.9865 25.0293 45.9865C25.0293 37.0492 25.0293 28.1363 25.0293 19.127C26.6356 19.127 28.1644 19.127 30.0096 19.127Z" fill="#6A6A6A"/>
<path d="M118.4 0C118.4 0 118.4 6.32321 118.4 9.3382C118.205 12.1363 115.988 13.9389 113.163 14.0253H-3.7998C-3.7998 14.0253 -3.72505 7.36707 -3.72505 4.13865C-3.72505 1.67018 -1.31545 0.00968332 1.17432 0.00968332C1.98152 0.00929599 118.4 0 118.4 0Z" fill="#6A6A6A"/>
</svg>
